  0
SECTION
  2
HEADER
  9
$ACADVER
  1
AC1014
  9
$HANDSEED
  5
FFFF
  9
$MEASUREMENT
 70
     1
  0
ENDSEC
  0
SECTION
  2
TABLES
  0
TABLE
  2
VPORT
  5
8
330
0
100
AcDbSymbolTable
 70
     4
  0
VPORT
  5
2E
330
8
100
AcDbSymbolTableRecord
100
AcDbViewportTableRecord
  2
*ACTIVE
 70
     0
 10
0.0
 20
0.0
 11
1.0
 21
1.0
 12
210.0
 22
148.5
 13
0.0
 23
0.0
 14
10.0
 24
10.0
 15
10.0
 25
10.0
 16
0.0
 26
0.0
 36
1.0
 17
0.0
 27
0.0
 37
0.0
 40
341.0
 41
1.24
 42
50.0
 43
0.0
 44
0.0
 50
0.0
 51
0.0
 71
     0
 72
   100
 73
     1
 74
     3
 75
     0
 76
     0
 77
     0
 78
     0
  0
ENDTAB
  0
TABLE
  2
LTYPE
  5
5
330
0
100
AcDbSymbolTable
 70
     1
  0
LTYPE
  5
14
330
5
100
AcDbSymbolTableRecord
100
AcDbLinetypeTableRecord
  2
BYBLOCK
 70
     0
  3

 72
    65
 73
     0
 40
0.0
  0
LTYPE
  5
15
330
5
100
AcDbSymbolTableRecord
100
AcDbLinetypeTableRecord
  2
BYLAYER
 70
     0
  3

 72
    65
 73
     0
 40
0.0
  0
LTYPE
  5
16
330
5
100
AcDbSymbolTableRecord
100
AcDbLinetypeTableRecord
  2
CONTINUOUS
 70
     0
  3
Solid line
 72
    65
 73
     0
 40
0.0
  0
ENDTAB
  0
TABLE
  2
LAYER
  5
2
100
AcDbSymbolTable
 70
4
  0
LAYER
  5
50
100
AcDbSymbolTableRecord
100
AcDbLayerTableRecord
  2
0
 70
0
  6
CONTINUOUS
  0
LAYER
  5
51
100
AcDbSymbolTableRecord
100
AcDbLayerTableRecord
  2
Defpoints
 70
0
  6
CONTINUOUS
  0
LAYER
  5
52
100
AcDbSymbolTableRecord
100
AcDbLayerTableRecord
  2
Visible
 70
0
  6
CONTINUOUS
  0
LAYER
  5
53
100
AcDbSymbolTableRecord
100
AcDbLayerTableRecord
  2
Border
 70
0
  6
CONTINUOUS
  0
ENDTAB
  0
TABLE
  2
STYLE
  5
3
330
0
100
AcDbSymbolTable
 70
     1
  0
STYLE
  5
11
330
3
100
AcDbSymbolTableRecord
100
AcDbTextStyleTableRecord
  2
STANDARD
 70
     0
 40
0.0
 41
1.0
 50
0.0
 71
     0
 42
2.5
  3
txt
  4

  0
ENDTAB
  0
TABLE
  2
VIEW
  5
6
330
0
100
AcDbSymbolTable
 70
     0
  0
ENDTAB
  0
TABLE
  2
UCS
  5
7
330
0
100
AcDbSymbolTable
 70
     0
  0
ENDTAB
  0
TABLE
  2
APPID
  5
9
330
0
100
AcDbSymbolTable
 70
     2
  0
APPID
  5
12
330
9
100
AcDbSymbolTableRecord
100
AcDbRegAppTableRecord
  2
ACAD
 70
     0
  0
ENDTAB
  0
TABLE
  2
DIMSTYLE
  5
A
330
0
100
AcDbSymbolTable
 70
     1
  0
DIMSTYLE
105
27
330
A
100
AcDbSymbolTableRecord
100
AcDbDimStyleTableRecord
  2
ISO-25
 70
     0
  3

  4

  5

  6

  7

 40
1.0
 41
2.5
 42
0.625
 43
3.75
 44
1.25
 45
0.0
 46
0.0
 47
0.0
 48
0.0
140
2.5
141
2.5
142
0.0
143
0.03937007874016
144
1.0
145
0.0
146
1.0
147
0.625
 71
     0
 72
     0
 73
     0
 74
     0
 75
     0
 76
     0
 77
     1
 78
     8
170
     0
171
     3
172
     1
173
     0
174
     0
175
     0
176
     0
177
     0
178
     0
270
     2
271
     2
272
     2
273
     2
274
     3
340
11
275
     0
280
     0
281
     0
282
     0
283
     0
284
     8
285
     0
286
     0
287
     3
288
     0
  0
ENDTAB
  0
TABLE
  2
BLOCK_RECORD
  5
1
330
0
100
AcDbSymbolTable
 70
     1
  0
BLOCK_RECORD
  5
1F
330
1
100
AcDbSymbolTableRecord
100
AcDbBlockTableRecord
  2
*MODEL_SPACE
  0
BLOCK_RECORD
  5
1B
330
1
100
AcDbSymbolTableRecord
100
AcDbBlockTableRecord
  2
*PAPER_SPACE
  0
ENDTAB
  0
ENDSEC
  0
SECTION
  2
BLOCKS
  0
BLOCK
  5
20
330
1F
100
AcDbEntity
  8
0
100
AcDbBlockBegin
  2
*MODEL_SPACE
 70
     0
 10
0.0
 20
0.0
 30
0.0
  3
*MODEL_SPACE
  1

  0
ENDBLK
  5
21
330
1F
100
AcDbEntity
  8
0
100
AcDbBlockEnd
  0
BLOCK
  5
1C
330
1B
100
AcDbEntity
 67
     1
  8
0
100
AcDbBlockBegin
  2
*PAPER_SPACE
  1

  0
ENDBLK
  5
1D
330
1B
100
AcDbEntity
 67
     1
  8
0
100
AcDbBlockEnd
  0
ENDSEC
  0
SECTION
  2
ENTITIES
  0
SPLINE
  5
100
100
AcDbEntity
  8
Visible
 62
7
100
AcDbSpline
 70
8
 71
3
 72
8
 73
4
 74
0
 40
0
 40
0
 40
0
 40
0
 40
1
 40
1
 40
1
 40
1
 10
40.282292
 20
22.632294
 30
0.0
 10
40.282687
 20
23.043412
 30
0.0
 10
40.063584
 20
23.423470
 30
0.0
 10
39.707611
 20
23.629143
 30
0.0
  0
SPLINE
  5
101
100
AcDbEntity
  8
Visible
 62
7
100
AcDbSpline
 70
8
 71
3
 72
8
 73
4
 74
0
 40
0
 40
0
 40
0
 40
0
 40
1
 40
1
 40
1
 40
1
 10
39.707611
 20
23.629143
 30
0.0
 10
39.351638
 20
23.834816
 30
0.0
 10
38.912947
 20
23.834816
 30
0.0
 10
38.556974
 20
23.629143
 30
0.0
  0
SPLINE
  5
102
100
AcDbEntity
  8
Visible
 62
7
100
AcDbSpline
 70
8
 71
3
 72
8
 73
4
 74
0
 40
0
 40
0
 40
0
 40
0
 40
1
 40
1
 40
1
 40
1
 10
38.556974
 20
23.629143
 30
0.0
 10
38.201001
 20
23.423470
 30
0.0
 10
37.981899
 20
23.043412
 30
0.0
 10
37.982293
 20
22.632294
 30
0.0
  0
SPLINE
  5
103
100
AcDbEntity
  8
Visible
 62
7
100
AcDbSpline
 70
8
 71
3
 72
8
 73
4
 74
0
 40
0
 40
0
 40
0
 40
0
 40
1
 40
1
 40
1
 40
1
 10
37.982293
 20
22.632294
 30
0.0
 10
37.981899
 20
22.221176
 30
0.0
 10
38.201001
 20
21.841119
 30
0.0
 10
38.556974
 20
21.635446
 30
0.0
  0
SPLINE
  5
104
100
AcDbEntity
  8
Visible
 62
7
100
AcDbSpline
 70
8
 71
3
 72
8
 73
4
 74
0
 40
0
 40
0
 40
0
 40
0
 40
1
 40
1
 40
1
 40
1
 10
38.556974
 20
21.635446
 30
0.0
 10
38.912947
 20
21.429773
 30
0.0
 10
39.351638
 20
21.429773
 30
0.0
 10
39.707611
 20
21.635446
 30
0.0
  0
SPLINE
  5
105
100
AcDbEntity
  8
Visible
 62
7
100
AcDbSpline
 70
8
 71
3
 72
8
 73
4
 74
0
 40
0
 40
0
 40
0
 40
0
 40
1
 40
1
 40
1
 40
1
 10
39.707611
 20
21.635446
 30
0.0
 10
40.063584
 20
21.841119
 30
0.0
 10
40.282687
 20
22.221176
 30
0.0
 10
40.282292
 20
22.632294
 30
0.0
  0
SPLINE
  5
106
100
AcDbEntity
  8
Visible
 62
7
100
AcDbSpline
 70
8
 71
3
 72
8
 73
4
 74
0
 40
0
 40
0
 40
0
 40
0
 40
1
 40
1
 40
1
 40
1
 10
119.282293
 20
42.632294
 30
0.0
 10
119.282687
 20
43.043412
 30
0.0
 10
119.063585
 20
43.423470
 30
0.0
 10
118.707612
 20
43.629143
 30
0.0
  0
SPLINE
  5
107
100
AcDbEntity
  8
Visible
 62
7
100
AcDbSpline
 70
8
 71
3
 72
8
 73
4
 74
0
 40
0
 40
0
 40
0
 40
0
 40
1
 40
1
 40
1
 40
1
 10
118.707612
 20
43.629143
 30
0.0
 10
118.351639
 20
43.834816
 30
0.0
 10
117.912948
 20
43.834816
 30
0.0
 10
117.556975
 20
43.629143
 30
0.0
  0
SPLINE
  5
108
100
AcDbEntity
  8
Visible
 62
7
100
AcDbSpline
 70
8
 71
3
 72
8
 73
4
 74
0
 40
0
 40
0
 40
0
 40
0
 40
1
 40
1
 40
1
 40
1
 10
117.556975
 20
43.629143
 30
0.0
 10
117.201002
 20
43.423470
 30
0.0
 10
116.981900
 20
43.043412
 30
0.0
 10
116.982294
 20
42.632294
 30
0.0
  0
SPLINE
  5
109
100
AcDbEntity
  8
Visible
 62
7
100
AcDbSpline
 70
8
 71
3
 72
8
 73
4
 74
0
 40
0
 40
0
 40
0
 40
0
 40
1
 40
1
 40
1
 40
1
 10
116.982294
 20
42.632294
 30
0.0
 10
116.981900
 20
42.221176
 30
0.0
 10
117.201002
 20
41.841118
 30
0.0
 10
117.556975
 20
41.635445
 30
0.0
  0
SPLINE
  5
10a
100
AcDbEntity
  8
Visible
 62
7
100
AcDbSpline
 70
8
 71
3
 72
8
 73
4
 74
0
 40
0
 40
0
 40
0
 40
0
 40
1
 40
1
 40
1
 40
1
 10
117.556975
 20
41.635445
 30
0.0
 10
117.912948
 20
41.429772
 30
0.0
 10
118.351639
 20
41.429772
 30
0.0
 10
118.707612
 20
41.635445
 30
0.0
  0
SPLINE
  5
10b
100
AcDbEntity
  8
Visible
 62
7
100
AcDbSpline
 70
8
 71
3
 72
8
 73
4
 74
0
 40
0
 40
0
 40
0
 40
0
 40
1
 40
1
 40
1
 40
1
 10
118.707612
 20
41.635445
 30
0.0
 10
119.063585
 20
41.841118
 30
0.0
 10
119.282687
 20
42.221176
 30
0.0
 10
119.282293
 20
42.632294
 30
0.0
  0
LWPOLYLINE
  5
10c
100
AcDbEntity
  8
Visible
 62
7
100
AcDbPolyline
 90
1
 70
1
 10
40.282292
 20
22.632294
 30
0.0
  0
SPLINE
  5
10d
100
AcDbEntity
  8
Visible
 62
7
100
AcDbSpline
 70
8
 71
3
 72
8
 73
4
 74
0
 40
0
 40
0
 40
0
 40
0
 40
1
 40
1
 40
1
 40
1
 10
40.282292
 20
42.632294
 30
0.0
 10
40.282687
 20
43.043412
 30
0.0
 10
40.063584
 20
43.423470
 30
0.0
 10
39.707611
 20
43.629143
 30
0.0
  0
SPLINE
  5
10e
100
AcDbEntity
  8
Visible
 62
7
100
AcDbSpline
 70
8
 71
3
 72
8
 73
4
 74
0
 40
0
 40
0
 40
0
 40
0
 40
1
 40
1
 40
1
 40
1
 10
39.707611
 20
43.629143
 30
0.0
 10
39.351638
 20
43.834816
 30
0.0
 10
38.912947
 20
43.834816
 30
0.0
 10
38.556974
 20
43.629143
 30
0.0
  0
SPLINE
  5
10f
100
AcDbEntity
  8
Visible
 62
7
100
AcDbSpline
 70
8
 71
3
 72
8
 73
4
 74
0
 40
0
 40
0
 40
0
 40
0
 40
1
 40
1
 40
1
 40
1
 10
38.556974
 20
43.629143
 30
0.0
 10
38.201001
 20
43.423470
 30
0.0
 10
37.981899
 20
43.043412
 30
0.0
 10
37.982293
 20
42.632294
 30
0.0
  0
SPLINE
  5
110
100
AcDbEntity
  8
Visible
 62
7
100
AcDbSpline
 70
8
 71
3
 72
8
 73
4
 74
0
 40
0
 40
0
 40
0
 40
0
 40
1
 40
1
 40
1
 40
1
 10
37.982293
 20
42.632294
 30
0.0
 10
37.981899
 20
42.221176
 30
0.0
 10
38.201001
 20
41.841118
 30
0.0
 10
38.556974
 20
41.635445
 30
0.0
  0
SPLINE
  5
111
100
AcDbEntity
  8
Visible
 62
7
100
AcDbSpline
 70
8
 71
3
 72
8
 73
4
 74
0
 40
0
 40
0
 40
0
 40
0
 40
1
 40
1
 40
1
 40
1
 10
38.556974
 20
41.635445
 30
0.0
 10
38.912947
 20
41.429772
 30
0.0
 10
39.351638
 20
41.429772
 30
0.0
 10
39.707611
 20
41.635445
 30
0.0
  0
SPLINE
  5
112
100
AcDbEntity
  8
Visible
 62
7
100
AcDbSpline
 70
8
 71
3
 72
8
 73
4
 74
0
 40
0
 40
0
 40
0
 40
0
 40
1
 40
1
 40
1
 40
1
 10
39.707611
 20
41.635445
 30
0.0
 10
40.063584
 20
41.841118
 30
0.0
 10
40.282687
 20
42.221176
 30
0.0
 10
40.282292
 20
42.632294
 30
0.0
  0
LWPOLYLINE
  5
113
100
AcDbEntity
  8
Visible
 62
7
100
AcDbPolyline
 90
1
 70
1
 10
119.282293
 20
42.632294
 30
0.0
  0
SPLINE
  5
114
100
AcDbEntity
  8
Visible
 62
7
100
AcDbSpline
 70
8
 71
3
 72
8
 73
4
 74
0
 40
0
 40
0
 40
0
 40
0
 40
1
 40
1
 40
1
 40
1
 10
119.282293
 20
22.632294
 30
0.0
 10
119.282687
 20
23.043412
 30
0.0
 10
119.063585
 20
23.423470
 30
0.0
 10
118.707612
 20
23.629143
 30
0.0
  0
SPLINE
  5
115
100
AcDbEntity
  8
Visible
 62
7
100
AcDbSpline
 70
8
 71
3
 72
8
 73
4
 74
0
 40
0
 40
0
 40
0
 40
0
 40
1
 40
1
 40
1
 40
1
 10
118.707612
 20
23.629143
 30
0.0
 10
118.351639
 20
23.834816
 30
0.0
 10
117.912948
 20
23.834816
 30
0.0
 10
117.556975
 20
23.629143
 30
0.0
  0
SPLINE
  5
116
100
AcDbEntity
  8
Visible
 62
7
100
AcDbSpline
 70
8
 71
3
 72
8
 73
4
 74
0
 40
0
 40
0
 40
0
 40
0
 40
1
 40
1
 40
1
 40
1
 10
117.556975
 20
23.629143
 30
0.0
 10
117.201002
 20
23.423470
 30
0.0
 10
116.981900
 20
23.043412
 30
0.0
 10
116.982294
 20
22.632294
 30
0.0
  0
SPLINE
  5
117
100
AcDbEntity
  8
Visible
 62
7
100
AcDbSpline
 70
8
 71
3
 72
8
 73
4
 74
0
 40
0
 40
0
 40
0
 40
0
 40
1
 40
1
 40
1
 40
1
 10
116.982294
 20
22.632294
 30
0.0
 10
116.981900
 20
22.221176
 30
0.0
 10
117.201002
 20
21.841119
 30
0.0
 10
117.556975
 20
21.635446
 30
0.0
  0
SPLINE
  5
118
100
AcDbEntity
  8
Visible
 62
7
100
AcDbSpline
 70
8
 71
3
 72
8
 73
4
 74
0
 40
0
 40
0
 40
0
 40
0
 40
1
 40
1
 40
1
 40
1
 10
117.556975
 20
21.635446
 30
0.0
 10
117.912948
 20
21.429773
 30
0.0
 10
118.351639
 20
21.429773
 30
0.0
 10
118.707612
 20
21.635446
 30
0.0
  0
SPLINE
  5
119
100
AcDbEntity
  8
Visible
 62
7
100
AcDbSpline
 70
8
 71
3
 72
8
 73
4
 74
0
 40
0
 40
0
 40
0
 40
0
 40
1
 40
1
 40
1
 40
1
 10
118.707612
 20
21.635446
 30
0.0
 10
119.063585
 20
21.841119
 30
0.0
 10
119.282687
 20
22.221176
 30
0.0
 10
119.282293
 20
22.632294
 30
0.0
  0
LWPOLYLINE
  5
11a
100
AcDbEntity
  8
Visible
 62
7
100
AcDbPolyline
 90
1
 70
1
 10
40.282292
 20
42.632294
 30
0.0
  0
SPLINE
  5
11b
100
AcDbEntity
  8
Visible
 62
7
100
AcDbSpline
 70
8
 71
3
 72
8
 73
4
 74
0
 40
0
 40
0
 40
0
 40
0
 40
1
 40
1
 40
1
 40
1
 10
154.132292
 20
65.132294
 30
0.0
 10
154.927942
 20
65.132293
 30
0.0
 10
155.691004
 20
65.448364
 30
0.0
 10
156.253614
 20
66.010974
 30
0.0
  0
SPLINE
  5
11c
100
AcDbEntity
  8
Visible
 62
7
100
AcDbSpline
 70
8
 71
3
 72
8
 73
4
 74
0
 40
0
 40
0
 40
0
 40
0
 40
1
 40
1
 40
1
 40
1
 10
156.253614
 20
66.010974
 30
0.0
 10
156.816224
 20
66.573583
 30
0.0
 10
157.132294
 20
67.336646
 30
0.0
 10
157.132294
 20
68.132296
 30
0.0
  0
LWPOLYLINE
  5
11d
100
AcDbEntity
  8
Visible
 62
7
100
AcDbPolyline
 90
1
 70
1
 10
119.282293
 20
22.632294
 30
0.0
  0
SPLINE
  5
11e
100
AcDbEntity
  8
Visible
 62
7
100
AcDbSpline
 70
8
 71
3
 72
8
 73
4
 74
0
 40
0
 40
0
 40
0
 40
0
 40
1
 40
1
 40
1
 40
1
 10
157.132294
 20
73.132294
 30
0.0
 10
157.132294
 20
73.927944
 30
0.0
 10
156.816224
 20
74.691006
 30
0.0
 10
156.253614
 20
75.253616
 30
0.0
  0
SPLINE
  5
11f
100
AcDbEntity
  8
Visible
 62
7
100
AcDbSpline
 70
8
 71
3
 72
8
 73
4
 74
0
 40
0
 40
0
 40
0
 40
0
 40
1
 40
1
 40
1
 40
1
 10
156.253614
 20
75.253616
 30
0.0
 10
155.691004
 20
75.816226
 30
0.0
 10
154.927942
 20
76.132296
 30
0.0
 10
154.132292
 20
76.132296
 30
0.0
  0
LWPOLYLINE
  5
120
100
AcDbEntity
  8
Visible
 62
7
100
AcDbPolyline
 90
2
 70
0
 10
157.132294
 20
68.132296
 30
0.0
 10
157.132294
 20
73.132294
 30
0.0
  0
SPLINE
  5
121
100
AcDbEntity
  8
Visible
 62
7
100
AcDbSpline
 70
8
 71
3
 72
8
 73
4
 74
0
 40
0
 40
0
 40
0
 40
0
 40
1
 40
1
 40
1
 40
1
 10
103.401136
 20
81.776686
 30
0.0
 10
105.071314
 20
78.324985
 30
0.0
 10
108.568184
 20
76.132295
 30
0.0
 10
112.402730
 20
76.132296
 30
0.0
  0
LWPOLYLINE
  5
122
100
AcDbEntity
  8
Visible
 62
7
100
AcDbPolyline
 90
2
 70
0
 10
154.132292
 20
76.132296
 30
0.0
 10
112.402730
 20
76.132296
 30
0.0
  0
SPLINE
  5
123
100
AcDbEntity
  8
Visible
 62
7
100
AcDbSpline
 70
8
 71
3
 72
8
 73
4
 74
0
 40
0
 40
0
 40
0
 40
0
 40
1
 40
1
 40
1
 40
1
 10
91.132293
 20
108.966082
 30
0.0
 10
91.132293
 20
107.759207
 30
0.0
 10
91.405351
 20
106.567973
 30
0.0
 10
91.931017
 20
105.481594
 30
0.0
  0
LWPOLYLINE
  5
124
100
AcDbEntity
  8
Visible
 62
7
100
AcDbPolyline
 90
2
 70
0
 10
103.401136
 20
81.776686
 30
0.0
 10
91.931017
 20
105.481594
 30
0.0
  0
SPLINE
  5
125
100
AcDbEntity
  8
Visible
 62
7
100
AcDbSpline
 70
8
 71
3
 72
8
 73
4
 74
0
 40
0
 40
0
 40
0
 40
0
 40
1
 40
1
 40
1
 40
1
 10
92.010972
 20
134.010974
 30
0.0
 10
91.448363
 20
133.448365
 30
0.0
 10
91.132293
 20
132.685303
 30
0.0
 10
91.132293
 20
131.889653
 30
0.0
  0
LWPOLYLINE
  5
126
100
AcDbEntity
  8
Visible
 62
7
100
AcDbPolyline
 90
2
 70
0
 10
91.132293
 20
108.966082
 30
0.0
 10
91.132293
 20
131.889653
 30
0.0
  0
SPLINE
  5
127
100
AcDbEntity
  8
Visible
 62
7
100
AcDbSpline
 70
8
 71
3
 72
8
 73
4
 74
0
 40
0
 40
0
 40
0
 40
0
 40
1
 40
1
 40
1
 40
1
 10
96.374933
 20
137.132293
 30
0.0
 10
95.579284
 20
137.132292
 30
0.0
 10
94.816223
 20
136.816222
 30
0.0
 10
94.253615
 20
136.253614
 30
0.0
  0
LWPOLYLINE
  5
128
100
AcDbEntity
  8
Visible
 62
7
100
AcDbPolyline
 90
2
 70
0
 10
94.253615
 20
136.253614
 30
0.0
 10
92.010972
 20
134.010974
 30
0.0
  0
SPLINE
  5
129
100
AcDbEntity
  8
Visible
 62
7
100
AcDbSpline
 70
8
 71
3
 72
8
 73
4
 74
0
 40
0
 40
0
 40
0
 40
0
 40
1
 40
1
 40
1
 40
1
 10
103.632292
 20
137.132293
 30
0.0
 10
104.427942
 20
137.132293
 30
0.0
 10
105.191004
 20
137.448364
 30
0.0
 10
105.753613
 20
138.010973
 30
0.0
  0
SPLINE
  5
12a
100
AcDbEntity
  8
Visible
 62
7
100
AcDbSpline
 70
8
 71
3
 72
8
 73
4
 74
0
 40
0
 40
0
 40
0
 40
0
 40
1
 40
1
 40
1
 40
1
 10
105.753613
 20
138.010973
 30
0.0
 10
106.316222
 20
138.573583
 30
0.0
 10
106.632292
 20
139.336645
 30
0.0
 10
106.632291
 20
140.132295
 30
0.0
  0
LWPOLYLINE
  5
12b
100
AcDbEntity
  8
Visible
 62
7
100
AcDbPolyline
 90
2
 70
0
 10
96.374933
 20
137.132293
 30
0.0
 10
103.632292
 20
137.132293
 30
0.0
  0
SPLINE
  5
12c
100
AcDbEntity
  8
Visible
 62
7
100
AcDbSpline
 70
8
 71
3
 72
8
 73
4
 74
0
 40
0
 40
0
 40
0
 40
0
 40
1
 40
1
 40
1
 40
1
 10
106.632291
 20
147.132294
 30
0.0
 10
106.632291
 20
148.789148
 30
0.0
 10
105.289146
 20
150.132293
 30
0.0
 10
103.632292
 20
150.132293
 30
0.0
  0
LWPOLYLINE
  5
12d
100
AcDbEntity
  8
Visible
 62
7
100
AcDbPolyline
 90
2
 70
0
 10
106.632291
 20
140.132295
 30
0.0
 10
106.632291
 20
147.132294
 30
0.0
  0
SPLINE
  5
12e
100
AcDbEntity
  8
Visible
 62
7
100
AcDbSpline
 70
8
 71
3
 72
8
 73
4
 74
0
 40
0
 40
0
 40
0
 40
0
 40
1
 40
1
 40
1
 40
1
 10
53.632292
 20
150.132293
 30
0.0
 10
51.975438
 20
150.132293
 30
0.0
 10
50.632293
 20
148.789148
 30
0.0
 10
50.632292
 20
147.132294
 30
0.0
  0
LWPOLYLINE
  5
12f
100
AcDbEntity
  8
Visible
 62
7
100
AcDbPolyline
 90
2
 70
0
 10
103.632292
 20
150.132293
 30
0.0
 10
53.632292
 20
150.132293
 30
0.0
  0
SPLINE
  5
130
100
AcDbEntity
  8
Visible
 62
7
100
AcDbSpline
 70
8
 71
3
 72
8
 73
4
 74
0
 40
0
 40
0
 40
0
 40
0
 40
1
 40
1
 40
1
 40
1
 10
50.632292
 20
140.132295
 30
0.0
 10
50.632292
 20
139.336645
 30
0.0
 10
50.948362
 20
138.573583
 30
0.0
 10
51.510971
 20
138.010973
 30
0.0
  0
SPLINE
  5
131
100
AcDbEntity
  8
Visible
 62
7
100
AcDbSpline
 70
8
 71
3
 72
8
 73
4
 74
0
 40
0
 40
0
 40
0
 40
0
 40
1
 40
1
 40
1
 40
1
 10
51.510971
 20
138.010973
 30
0.0
 10
52.073580
 20
137.448364
 30
0.0
 10
52.836642
 20
137.132293
 30
0.0
 10
53.632292
 20
137.132293
 30
0.0
  0
LWPOLYLINE
  5
132
100
AcDbEntity
  8
Visible
 62
7
100
AcDbPolyline
 90
2
 70
0
 10
50.632292
 20
147.132294
 30
0.0
 10
50.632292
 20
140.132295
 30
0.0
  0
SPLINE
  5
133
100
AcDbEntity
  8
Visible
 62
7
100
AcDbSpline
 70
8
 71
3
 72
8
 73
4
 74
0
 40
0
 40
0
 40
0
 40
0
 40
1
 40
1
 40
1
 40
1
 10
63.010974
 20
136.253614
 30
0.0
 10
62.448365
 20
136.816223
 30
0.0
 10
61.685303
 20
137.132293
 30
0.0
 10
60.889654
 20
137.132293
 30
0.0
  0
LWPOLYLINE
  5
134
100
AcDbEntity
  8
Visible
 62
7
100
AcDbPolyline
 90
2
 70
0
 10
53.632292
 20
137.132293
 30
0.0
 10
60.889654
 20
137.132293
 30
0.0
  0
SPLINE
  5
135
100
AcDbEntity
  8
Visible
 62
7
100
AcDbSpline
 70
8
 71
3
 72
8
 73
4
 74
0
 40
0
 40
0
 40
0
 40
0
 40
1
 40
1
 40
1
 40
1
 10
66.132293
 20
131.889653
 30
0.0
 10
66.132293
 20
132.685303
 30
0.0
 10
65.816222
 20
133.448365
 30
0.0
 10
65.253612
 20
134.010974
 30
0.0
  0
LWPOLYLINE
  5
136
100
AcDbEntity
  8
Visible
 62
7
100
AcDbPolyline
 90
2
 70
0
 10
65.253614
 20
134.010974
 30
0.0
 10
63.010972
 20
136.253614
 30
0.0
  0
SPLINE
  5
137
100
AcDbEntity
  8
Visible
 62
7
100
AcDbSpline
 70
8
 71
3
 72
8
 73
4
 74
0
 40
0
 40
0
 40
0
 40
0
 40
1
 40
1
 40
1
 40
1
 10
65.333566
 20
105.481594
 30
0.0
 10
65.859234
 20
106.567973
 30
0.0
 10
66.132293
 20
107.759207
 30
0.0
 10
66.132293
 20
108.966082
 30
0.0
  0
LWPOLYLINE
  5
138
100
AcDbEntity
  8
Visible
 62
7
100
AcDbPolyline
 90
2
 70
0
 10
66.132293
 20
131.889653
 30
0.0
 10
66.132293
 20
108.966082
 30
0.0
  0
SPLINE
  5
139
100
AcDbEntity
  8
Visible
 62
7
100
AcDbSpline
 70
8
 71
3
 72
8
 73
4
 74
0
 40
0
 40
0
 40
0
 40
0
 40
1
 40
1
 40
1
 40
1
 10
44.861857
 20
76.132296
 30
0.0
 10
48.696402
 20
76.132295
 30
0.0
 10
52.193272
 20
78.324985
 30
0.0
 10
53.863450
 20
81.776686
 30
0.0
  0
LWPOLYLINE
  5
13a
100
AcDbEntity
  8
Visible
 62
7
100
AcDbPolyline
 90
2
 70
0
 10
65.333566
 20
105.481594
 30
0.0
 10
53.863450
 20
81.776686
 30
0.0
  0
SPLINE
  5
13b
100
AcDbEntity
  8
Visible
 62
7
100
AcDbSpline
 70
8
 71
3
 72
8
 73
4
 74
0
 40
0
 40
0
 40
0
 40
0
 40
1
 40
1
 40
1
 40
1
 10
3.132292
 20
76.132296
 30
0.0
 10
2.336642
 20
76.132296
 30
0.0
 10
1.573580
 20
75.816225
 30
0.0
 10
1.010971
 20
75.253616
 30
0.0
  0
SPLINE
  5
13c
100
AcDbEntity
  8
Visible
 62
7
100
AcDbSpline
 70
8
 71
3
 72
8
 73
4
 74
0
 40
0
 40
0
 40
0
 40
0
 40
1
 40
1
 40
1
 40
1
 10
1.010971
 20
75.253616
 30
0.0
 10
0.448362
 20
74.691006
 30
0.0
 10
0.132291
 20
73.927944
 30
0.0
 10
0.132292
 20
73.132294
 30
0.0
  0
LWPOLYLINE
  5
13d
100
AcDbEntity
  8
Visible
 62
7
100
AcDbPolyline
 90
2
 70
0
 10
44.861857
 20
76.132296
 30
0.0
 10
3.132292
 20
76.132296
 30
0.0
  0
SPLINE
  5
13e
100
AcDbEntity
  8
Visible
 62
7
100
AcDbSpline
 70
8
 71
3
 72
8
 73
4
 74
0
 40
0
 40
0
 40
0
 40
0
 40
1
 40
1
 40
1
 40
1
 10
0.132292
 20
68.132296
 30
0.0
 10
0.132291
 20
67.336646
 30
0.0
 10
0.448362
 20
66.573584
 30
0.0
 10
1.010971
 20
66.010974
 30
0.0
  0
SPLINE
  5
13f
100
AcDbEntity
  8
Visible
 62
7
100
AcDbSpline
 70
8
 71
3
 72
8
 73
4
 74
0
 40
0
 40
0
 40
0
 40
0
 40
1
 40
1
 40
1
 40
1
 10
1.010971
 20
66.010974
 30
0.0
 10
1.573580
 20
65.448365
 30
0.0
 10
2.336642
 20
65.132294
 30
0.0
 10
3.132292
 20
65.132294
 30
0.0
  0
LWPOLYLINE
  5
140
100
AcDbEntity
  8
Visible
 62
7
100
AcDbPolyline
 90
2
 70
0
 10
0.132292
 20
73.132294
 30
0.0
 10
0.132292
 20
68.132296
 30
0.0
  0
SPLINE
  5
141
100
AcDbEntity
  8
Visible
 62
7
100
AcDbSpline
 70
8
 71
3
 72
8
 73
4
 74
0
 40
0
 40
0
 40
0
 40
0
 40
1
 40
1
 40
1
 40
1
 10
35.843439
 20
60.710003
 30
0.0
 10
34.488302
 20
63.420275
 30
0.0
 10
31.718197
 20
65.132294
 30
0.0
 10
28.688020
 20
65.132294
 30
0.0
  0
LWPOLYLINE
  5
142
100
AcDbEntity
  8
Visible
 62
7
100
AcDbPolyline
 90
2
 70
0
 10
3.132292
 20
65.132294
 30
0.0
 10
28.688020
 20
65.132294
 30
0.0
  0
SPLINE
  5
143
100
AcDbEntity
  8
Visible
 62
7
100
AcDbSpline
 70
8
 71
3
 72
8
 73
4
 74
0
 40
0
 40
0
 40
0
 40
0
 40
1
 40
1
 40
1
 40
1
 10
30.688022
 20
45.132294
 30
0.0
 10
33.460642
 20
45.132295
 30
0.0
 10
36.035574
 20
46.567914
 30
0.0
 10
37.493227
 20
48.926446
 30
0.0
  0
SPLINE
  5
144
100
AcDbEntity
  8
Visible
 62
7
100
AcDbSpline
 70
8
 71
3
 72
8
 73
4
 74
0
 40
0
 40
0
 40
0
 40
0
 40
1
 40
1
 40
1
 40
1
 10
37.493227
 20
48.926446
 30
0.0
 10
38.950880
 20
51.284978
 30
0.0
 10
39.083391
 20
54.230096
 30
0.0
 10
37.843437
 20
56.710003
 30
0.0
  0
LWPOLYLINE
  5
145
100
AcDbEntity
  8
Visible
 62
7
100
AcDbPolyline
 90
2
 70
0
 10
35.843439
 20
60.710003
 30
0.0
 10
37.843440
 20
56.710003
 30
0.0
  0
SPLINE
  5
146
100
AcDbEntity
  8
Visible
 62
7
100
AcDbSpline
 70
8
 71
3
 72
8
 73
4
 74
0
 40
0
 40
0
 40
0
 40
0
 40
1
 40
1
 40
1
 40
1
 10
43.632293
 20
12.132294
 30
0.0
 10
43.632293
 20
14.254026
 30
0.0
 10
42.789438
 20
16.288857
 30
0.0
 10
41.289147
 20
17.789148
 30
0.0
  0
SPLINE
  5
147
100
AcDbEntity
  8
Visible
 62
7
100
AcDbSpline
 70
8
 71
3
 72
8
 73
4
 74
0
 40
0
 40
0
 40
0
 40
0
 40
1
 40
1
 40
1
 40
1
 10
41.289147
 20
17.789148
 30
0.0
 10
39.788856
 20
19.289439
 30
0.0
 10
37.754025
 20
20.132294
 30
0.0
 10
35.632293
 20
20.132294
 30
0.0
  0
LWPOLYLINE
  5
148
100
AcDbEntity
  8
Visible
 62
7
100
AcDbPolyline
 90
4
 70
0
 10
30.688022
 20
45.132294
 30
0.0
 10
23.632293
 20
45.132294
 30
0.0
 10
23.632293
 20
20.132294
 30
0.0
 10
35.632293
 20
20.132294
 30
0.0
  0
SPLINE
  5
149
100
AcDbEntity
  8
Visible
 62
7
100
AcDbSpline
 70
8
 71
3
 72
8
 73
4
 74
0
 40
0
 40
0
 40
0
 40
0
 40
1
 40
1
 40
1
 40
1
 10
43.632293
 20
8.132294
 30
0.0
 10
43.632293
 20
6.010562
 30
0.0
 10
44.475148
 20
3.975731
 30
0.0
 10
45.975439
 20
2.475440
 30
0.0
  0
SPLINE
  5
14a
100
AcDbEntity
  8
Visible
 62
7
100
AcDbSpline
 70
8
 71
3
 72
8
 73
4
 74
0
 40
0
 40
0
 40
0
 40
0
 40
1
 40
1
 40
1
 40
1
 10
45.975439
 20
2.475440
 30
0.0
 10
47.475730
 20
0.975149
 30
0.0
 10
49.510561
 20
0.132294
 30
0.0
 10
51.632293
 20
0.132294
 30
0.0
  0
LWPOLYLINE
  5
14b
100
AcDbEntity
  8
Visible
 62
7
100
AcDbPolyline
 90
2
 70
0
 10
43.632293
 20
12.132294
 30
0.0
 10
43.632293
 20
8.132294
 30
0.0
  0
SPLINE
  5
14c
100
AcDbEntity
  8
Visible
 62
7
100
AcDbSpline
 70
8
 71
3
 72
8
 73
4
 74
0
 40
0
 40
0
 40
0
 40
0
 40
1
 40
1
 40
1
 40
1
 10
105.632293
 20
0.132294
 30
0.0
 10
107.754025
 20
0.132294
 30
0.0
 10
109.788857
 20
0.975149
 30
0.0
 10
111.289148
 20
2.475440
 30
0.0
  0
SPLINE
  5
14d
100
AcDbEntity
  8
Visible
 62
7
100
AcDbSpline
 70
8
 71
3
 72
8
 73
4
 74
0
 40
0
 40
0
 40
0
 40
0
 40
1
 40
1
 40
1
 40
1
 10
111.289148
 20
2.475440
 30
0.0
 10
112.789439
 20
3.975731
 30
0.0
 10
113.632293
 20
6.010562
 30
0.0
 10
113.632293
 20
8.132294
 30
0.0
  0
LWPOLYLINE
  5
14e
100
AcDbEntity
  8
Visible
 62
7
100
AcDbPolyline
 90
2
 70
0
 10
51.632293
 20
0.132294
 30
0.0
 10
105.632293
 20
0.132294
 30
0.0
  0
SPLINE
  5
14f
100
AcDbEntity
  8
Visible
 62
7
100
AcDbSpline
 70
8
 71
3
 72
8
 73
4
 74
0
 40
0
 40
0
 40
0
 40
0
 40
1
 40
1
 40
1
 40
1
 10
121.632293
 20
20.132294
 30
0.0
 10
119.510561
 20
20.132294
 30
0.0
 10
117.475730
 20
19.289439
 30
0.0
 10
115.975439
 20
17.789148
 30
0.0
  0
SPLINE
  5
150
100
AcDbEntity
  8
Visible
 62
7
100
AcDbSpline
 70
8
 71
3
 72
8
 73
4
 74
0
 40
0
 40
0
 40
0
 40
0
 40
1
 40
1
 40
1
 40
1
 10
115.975439
 20
17.789148
 30
0.0
 10
114.475148
 20
16.288857
 30
0.0
 10
113.632293
 20
14.254026
 30
0.0
 10
113.632293
 20
12.132294
 30
0.0
  0
LWPOLYLINE
  5
151
100
AcDbEntity
  8
Visible
 62
7
100
AcDbPolyline
 90
2
 70
0
 10
113.632293
 20
8.132294
 30
0.0
 10
113.632293
 20
12.132294
 30
0.0
  0
SPLINE
  5
152
100
AcDbEntity
  8
Visible
 62
7
100
AcDbSpline
 70
8
 71
3
 72
8
 73
4
 74
0
 40
0
 40
0
 40
0
 40
0
 40
1
 40
1
 40
1
 40
1
 10
119.421146
 20
56.710003
 30
0.0
 10
118.181192
 20
54.230096
 30
0.0
 10
118.313704
 20
51.284977
 30
0.0
 10
119.771357
 20
48.926445
 30
0.0
  0
SPLINE
  5
153
100
AcDbEntity
  8
Visible
 62
7
100
AcDbSpline
 70
8
 71
3
 72
8
 73
4
 74
0
 40
0
 40
0
 40
0
 40
0
 40
1
 40
1
 40
1
 40
1
 10
119.771357
 20
48.926445
 30
0.0
 10
121.229011
 20
46.567913
 30
0.0
 10
123.803943
 20
45.132294
 30
0.0
 10
126.576565
 20
45.132294
 30
0.0
  0
LWPOLYLINE
  5
154
100
AcDbEntity
  8
Visible
 62
7
100
AcDbPolyline
 90
4
 70
0
 10
121.632293
 20
20.132294
 30
0.0
 10
133.632293
 20
20.132294
 30
0.0
 10
133.632293
 20
45.132294
 30
0.0
 10
126.576565
 20
45.132294
 30
0.0
  0
SPLINE
  5
155
100
AcDbEntity
  8
Visible
 62
7
100
AcDbSpline
 70
8
 71
3
 72
8
 73
4
 74
0
 40
0
 40
0
 40
0
 40
0
 40
1
 40
1
 40
1
 40
1
 10
128.576566
 20
65.132294
 30
0.0
 10
125.546389
 20
65.132294
 30
0.0
 10
122.776284
 20
63.420275
 30
0.0
 10
121.421148
 20
60.710003
 30
0.0
  0
LWPOLYLINE
  5
156
100
AcDbEntity
  8
Visible
 62
7
100
AcDbPolyline
 90
2
 70
0
 10
119.421146
 20
56.710003
 30
0.0
 10
121.421148
 20
60.710003
 30
0.0
  0
LWPOLYLINE
  5
157
100
AcDbEntity
  8
Visible
 62
7
100
AcDbPolyline
 90
2
 70
0
 10
128.576566
 20
65.132294
 30
0.0
 10
154.132292
 20
65.132294
 30
0.0
  0
LWPOLYLINE
  5
158
100
AcDbEntity
  8
Visible
 62
7
100
AcDbPolyline
 90
4
 70
1
 10
99.132293
 20
36.132296
 30
0.0
 10
99.132293
 20
33.132294
 30
0.0
 10
94.132293
 20
33.132294
 30
0.0
 10
94.132293
 20
36.132296
 30
0.0
  0
LWPOLYLINE
  5
159
100
AcDbEntity
  8
Visible
 62
7
100
AcDbPolyline
 90
4
 70
1
 10
63.132294
 20
67.132295
 30
0.0
 10
63.132294
 20
64.132296
 30
0.0
 10
58.132293
 20
64.132296
 30
0.0
 10
58.132293
 20
67.132295
 30
0.0
  0
LWPOLYLINE
  5
15a
100
AcDbEntity
  8
Visible
 62
7
100
AcDbPolyline
 90
4
 70
1
 10
99.132293
 20
67.132295
 30
0.0
 10
99.132293
 20
64.132296
 30
0.0
 10
94.132293
 20
64.132296
 30
0.0
 10
94.132293
 20
67.132295
 30
0.0
  0
LWPOLYLINE
  5
15b
100
AcDbEntity
  8
Visible
 62
7
100
AcDbPolyline
 90
4
 70
1
 10
63.132294
 20
36.132296
 30
0.0
 10
63.132294
 20
33.132294
 30
0.0
 10
58.132293
 20
33.132294
 30
0.0
 10
58.132293
 20
36.132296
 30
0.0
  0
ENDSEC
  0
SECTION
  2
OBJECTS
  0
DICTIONARY
  5
C
330
0
100
AcDbDictionary
  3
ACAD_GROUP
350
D
  3
ACAD_MLINESTYLE
350
17
  0
DICTIONARY
  5
D
330
C
100
AcDbDictionary
  0
DICTIONARY
  5
1A
330
C
100
AcDbDictionary
  0
DICTIONARY
  5
17
330
C
100
AcDbDictionary
  3
STANDARD
350
18
  0
DICTIONARY
  5
19
330
C
100
AcDbDictionary
  0
ENDSEC
  0
EOF
