M48
; DRILL file {KiCad 6.0.5-a6ca702e91~116~ubuntu20.04.1} date mar 07 jun 2022 12:28:35
; FORMAT={-:-/ absolute / metric / decimal}
; #@! TF.CreationDate,2022-06-07T12:28:35-04:00
; #@! TF.GenerationSoftware,Kicad,Pcbnew,6.0.5-a6ca702e91~116~ubuntu20.04.1
; #@! TF.FileFunction,Plated,1,2,PTH
FMAT,2
METRIC
; #@! TA.AperFunction,Plated,PTH,ComponentDrill
T1C0.762
; #@! TA.AperFunction,Plated,PTH,ViaDrill
T2C0.790
; #@! TA.AperFunction,Plated,PTH,ComponentDrill
T3C1.000
; #@! TA.AperFunction,Plated,PTH,ComponentDrill
T4C1.100
; #@! TA.AperFunction,Plated,PTH,ComponentDrill
T5C1.190
%
G90
G05
T1
X90.805Y-146.05
X90.805Y-148.59
X90.805Y-151.13
X90.805Y-153.67
X90.805Y-156.21
X90.805Y-158.75
X90.805Y-161.29
X90.805Y-163.83
X106.045Y-146.05
X106.045Y-148.59
X106.045Y-151.13
X106.045Y-153.67
X106.045Y-156.21
X106.045Y-158.75
X106.045Y-161.29
X106.045Y-163.83
T2
X64.008Y-152.4
X64.008Y-166.878
X66.548Y-152.146
X68.072Y-167.64
X80.01Y-80.01
X83.566Y-116.078
X83.566Y-118.618
X85.344Y-143.764
X85.344Y-153.67
X86.36Y-156.21
X86.614Y-77.47
X87.884Y-72.39
X88.392Y-120.142
X90.678Y-140.716
X93.218Y-102.87
X93.472Y-97.79
X93.98Y-127.508
X94.742Y-124.714
X97.79Y-157.226
X98.298Y-105.791
X99.06Y-127.508
X99.314Y-122.174
X100.076Y-107.95
X101.092Y-131.826
X102.362Y-118.11
X102.616Y-152.4
X102.87Y-97.536
X102.87Y-141.478
X103.632Y-77.978
X103.632Y-99.822
X111.506Y-77.47
X116.332Y-113.284
X117.348Y-124.46
X121.158Y-122.174
X125.095Y-163.195
X127.0Y-146.431
X127.254Y-157.988
X129.54Y-153.924
X130.048Y-126.746
X130.556Y-151.13
X131.572Y-156.718
X133.35Y-154.178
T3
X32.004Y-66.675
X32.004Y-69.215
X32.004Y-71.755
X73.708Y-161.76
X76.708Y-161.76
X79.708Y-161.76
X85.1Y-61.525
X87.64Y-61.525
X90.18Y-61.525
X90.922Y-69.85
X90.922Y-72.39
X90.922Y-74.93
X90.922Y-77.47
X90.922Y-80.01
X90.922Y-82.55
X90.922Y-85.09
X90.922Y-87.63
X90.922Y-90.17
X90.922Y-92.71
X90.922Y-95.25
X90.922Y-97.79
X90.922Y-100.33
X90.922Y-102.87
X90.922Y-105.41
X92.72Y-61.525
X95.26Y-61.525
X97.8Y-61.525
X100.34Y-61.525
X102.88Y-61.525
X105.42Y-61.525
X106.162Y-69.85
X106.162Y-72.39
X106.162Y-74.93
X106.162Y-77.47
X106.162Y-80.01
X106.162Y-82.55
X106.162Y-85.09
X106.162Y-87.63
X106.162Y-90.17
X106.162Y-92.71
X106.162Y-95.25
X106.162Y-97.79
X106.162Y-100.33
X106.162Y-102.87
X106.162Y-105.41
X114.945Y-150.876
X117.485Y-150.876
X120.025Y-150.876
X122.565Y-150.876
X164.846Y-66.675
X164.846Y-69.215
X164.846Y-71.755
T4
X81.717Y-143.51
X81.717Y-146.05
X81.717Y-148.59
T5
X58.694Y-154.178
X58.694Y-156.718
X58.694Y-159.258
X58.694Y-161.798
X58.694Y-164.338
X58.694Y-166.878
X76.688Y-154.686
X76.688Y-157.226
X137.922Y-154.178
X137.922Y-156.718
X137.922Y-159.258
X137.922Y-161.798
X137.922Y-164.338
X137.922Y-166.878
T0
M30
